<?xml version="1.0" encoding="utf-8"?>
<!DOCTYPE svg PUBLIC "-//W3C//DTD SVG 1.1//EN" "http://www.w3.org/Graphics/SVG/1.1/DTD/svg11.dtd">
<svg version="1.1" xmlns="http://www.w3.org/2000/svg" xmlns:xlink="http://www.w3.org/1999/xlink" 
	 width="478.619" height="184.762" viewBox="0 0 478.619 184.762" overflow="visible" enable-background="new 0 0 478.619 184.762"
	 xml:space="preserve">
		<g>
				<path fill="#E51717" stroke="#BFBFBF" stroke-width="4" d="M192.044,46.054c0,0-1.475,4.952,0.21,7.375
					c1.686,2.423,24.86,1.791,24.86,1.791L205.845,45L192.044,46.054z"/>
				<path stroke="#BFBFBF" stroke-width="4" d="M9.831,23.198c0,0,119.181,32.087,233.779,32.087
					c114.598,0,214.679-51.187,218.5-53.479c3.819-2.292,12.987,38.963,0.765,48.131c-12.225,9.168-80.983,48.896-216.208,48.896
					c-135.226,0-233.015-21.392-239.892-29.032C-0.101,62.161-0.101,31.602,9.831,23.198z"/>
				<path fill="#E51717" stroke="#BFBFBF" stroke-width="4" d="M9.831,23.198c0,0,119.181,32.087,233.779,32.087
					c0,0,0.849,19.544,3.056,43.547c-135.226,0-233.015-21.392-239.892-29.032C-0.101,62.161-0.101,31.602,9.831,23.198z"/>
				<path stroke="#BFBFBF" stroke-width="4" d="M71.917,37.044c18.309,3.179,45.154,8.842,83.154,12.842
					c-5.333,10.667-6.821,36.94-0.613,48.277c-32.611-3.883-79.182-11.608-83.177-12.422C61.834,81.692,59.251,47.71,71.917,37.044z
					"/>
				<path fill="#E51717" stroke="#BFBFBF" stroke-width="4" d="M402.565,26.816
					c-17.901,4.987-44.049,13.297-81.461,21.063c6.369,10.082,10.468,36.077,5.42,47.976c32.062-7.112,77.632-19.439,81.525-20.647
					C417.047,70.238,416.232,36.167,402.565,26.816z"/>
				<path stroke="#BFBFBF" stroke-width="2" d="M252.014,126.336c0,0-22.156-6.112-28.268-21.392
					c-6.111-15.279,58.827-29.795,58.827-29.795l-6.112,31.324L252.014,126.336z"/>
				<path stroke="#BFBFBF" stroke-width="4" d="M195.479,102.652c0,0,30.56,21.392,35.143,19.1
					c4.584-2.292,58.827-36.671,58.827-36.671L243.61,51.465l-50.423,38.2L195.479,102.652z"/>
				<path stroke="#BFBFBF" stroke-width="4" d="M22.818,152.312c0,0,125.293-76.398,200.928-106.958
					c75.635-30.56,30.56,29.031,30.56,29.031s-78.69,38.199-110.778,57.299s-81.746,50.424-87.858,51.188
					C49.558,183.635,22.818,152.312,22.818,152.312z"/>
				<path fill="#E51717" stroke="#BFBFBF" stroke-width="4" d="M84.763,115.822c0,0,21.563-12.511,84.983-45.469
					c2.379,8.643,30.899,29.666,30.899,29.666s-24.736,13.067-57.118,31.664c-20.247,11.628-25.844,15.414-25.844,15.414
					C111.572,147.861,84.763,115.822,84.763,115.822z"/>
				<path stroke="#BFBFBF" stroke-width="4" d="M255.967,27.303c0,0-5.29-1.851-14.146,8.46
					c-8.857,10.312,15.07,8.197,15.07,8.197L255.967,27.303z"/>
				<path stroke="#BFBFBF" stroke-width="4" d="M232.15,28.546c0,0,94.734,49.659,127.586,60.355
					c32.851,10.696,113.832,46.603,116.889,55.771s-27.503,30.559-27.503,30.559s-23.685-21.391-54.243-34.379
					c-30.56-12.987-83.274-34.379-112.306-48.131c-29.031-13.751-89.387-47.367-89.387-47.367L232.15,28.546z"/>
				<path fill="#E51717" stroke="#BFBFBF" stroke-width="4" d="M408.125,108.496c16.5,6,58,24.5,68.5,36.176
					c3.057,9.168-27.503,30.559-27.503,30.559s-29.497-27.734-72.997-42.234C389.625,125.496,395.625,118.996,408.125,108.496z"/>
				<path fill="#E51717" stroke="#BFBFBF" stroke-width="4" d="M232.15,28.546c0,0,57.509,30.648,92.843,45.982
					c-8.667,12-24.868,11.302-36.201,19.968c-14-6-95.605-49.143-95.605-49.143L232.15,28.546z"/>
				<path stroke="#BFBFBF" stroke-width="4" d="M255.834,27.782c0,0-2.292,92.442-4.584,97.026
					c-2.293,4.584,42.783-12.987,43.546-18.335c0.765-5.349,6.877-50.423,2.293-55.007S260.417,25.49,255.834,27.782z"/>
		</g>
</svg>
