<?xml version="1.0" encoding="utf-8"?>
<svg width="512" height="512" viewBox="0 0 512 512" xmlns="http://www.w3.org/2000/svg"
     xmlns:xlink="http://www.w3.org/1999/xlink">
  <defs>
    <svg i:viewOrigin="61.875 486.4961" i:rulerOrigin="-19 -196" i:pageBounds="19 596 594 196" width="478.619" height="184.762" viewBox="0 0 478.619 184.762" overflow="visible" enable-background="new 0 0 478.619 184.762" xml:space="preserve" display="block" id="white">
      <switch>
        <g i:extraneous="self" id="white">
          <g id="white" i:layer="yes" i:dimmedPercent="50" i:rgbTrio="#FFFF4F004F00">
            <path i:knockout="Off" fill="#FFFFFF" stroke="#1A1A1A" stroke-width="4" d="M192.044 46.054c0 0-1.475 4.952 0.21 7.375 1.686 2.423 24.86 1.791 24.86 1.791L205.845 45 192.044 46.054z"/>
            <path i:knockout="Off" fill="#FFFFFF" stroke="#1A1A1A" stroke-width="4" d="M9.831 23.198c0 0 119.181 32.087 233.779 32.087 114.598 0 214.679-51.187 218.5-53.479 3.819-2.292 12.987 38.963 0.765 48.131 -12.225 9.168-80.983 48.896-216.208 48.896 -135.226 0-233.015-21.392-239.892-29.032C-0.101 62.161-0.101 31.602 9.831 23.198z"/>
            <path i:knockout="Off" fill="#FFFFFF" stroke="#1A1A1A" stroke-width="4" d="M252.014 126.336c0 0-22.156-6.112-28.268-21.392 -6.111-15.279 58.827-29.795 58.827-29.795l-6.112 31.324L252.014 126.336z"/>
            <path i:knockout="Off" fill="#FFFFFF" stroke="#1A1A1A" stroke-width="4" d="M195.479 102.652c0 0 30.56 21.392 35.143 19.1 4.584-2.292 58.827-36.671 58.827-36.671L243.61 51.465l-50.423 38.2L195.479 102.652z"/>
            <path i:knockout="Off" fill="#FFFFFF" stroke="#1A1A1A" stroke-width="4" d="M22.818 152.312c0 0 125.293-76.398 200.928-106.958 75.635-30.56 30.56 29.031 30.56 29.031s-78.69 38.199-110.778 57.299 -81.746 50.424-87.858 51.188C49.558 183.635 22.818 152.312 22.818 152.312z"/>
            <path i:knockout="Off" fill="#FFFFFF" stroke="#1A1A1A" stroke-width="4" d="M255.967 27.303c0 0-5.29-1.851-14.146 8.46 -8.857 10.312 15.07 8.197 15.07 8.197L255.967 27.303z"/>
            <path i:knockout="Off" fill="#FFFFFF" stroke="#1A1A1A" stroke-width="4" d="M232.15 28.546c0 0 94.734 49.659 127.586 60.355 32.851 10.696 113.832 46.603 116.889 55.771s-27.503 30.559-27.503 30.559 -23.685-21.391-54.243-34.379c-30.56-12.987-83.274-34.379-112.306-48.131 -29.031-13.751-89.387-47.367-89.387-47.367L232.15 28.546z"/>
            <path i:knockout="Off" fill="#FFFFFF" stroke="#1A1A1A" stroke-width="4" d="M255.834 27.782c0 0-2.292 92.442-4.584 97.026 -2.293 4.584 42.783-12.987 43.546-18.335 0.765-5.349 6.877-50.423 2.293-55.007S260.417 25.49 255.834 27.782z"/>
            <path i:knockout="Off" fill="#FFFFFF" stroke="#1A1A1A" stroke-width="4" d="M52.833 134.34c0 0 20.641 24.654 33.446 31.918 4.013-1.912 87.34-50.839 87.34-50.839s-25.801-22.933-29.623-32.107C136.543 87.517 52.833 134.34 52.833 134.34z"/>
            <path i:knockout="Off" stroke="#1A1A1A" stroke-width="4" d="M62.006 129.18c0 0 20.641 24.655 33.446 31.917 4.013-1.911 68.995-40.707 68.995-40.707s-25.801-22.933-29.624-32.108C127.371 92.487 62.006 129.18 62.006 129.18z"/>
          </g>
        </g>
      </switch>
    </svg>

    <svg width="478.619" height="184.762" viewBox="0 0 478.619 184.762" overflow="visible" enable-background="new 0 0 478.619 184.762" xml:space="preserve" display="block" id="blue">
      <switch>
        <g i:extraneous="self">
          <g id="Layer_2" i:layer="yes" i:dimmedPercent="50" i:rgbTrio="#FFFF4F004F00">
            <path i:knockout="Off" fill="#2727C9" stroke="#000000" stroke-width="4" d="M192.044,46.054c0,0-1.475,4.952,0.21,7.375
          c1.686,2.423,24.86,1.791,24.86,1.791L205.845,45L192.044,46.054z"/>
            <path i:knockout="Off" fill="#2727C9" stroke="#000000" stroke-width="4" d="M9.831,23.198c0,0,119.181,32.087,233.779,32.087
          c114.598,0,214.679-51.187,218.5-53.479c3.819-2.292,12.987,38.963,0.765,48.131c-12.225,9.168-80.983,48.896-216.208,48.896
          c-135.226,0-233.015-21.392-239.892-29.032C-0.101,62.161-0.101,31.602,9.831,23.198z"/>
            <path i:knockout="Off" fill="#2727C9" stroke="#000000" stroke-width="4" d="M252.014,126.336c0,0-22.156-6.112-28.268-21.392
          c-6.111-15.279,58.827-29.795,58.827-29.795l-6.112,31.324L252.014,126.336z"/>
            <path i:knockout="Off" fill="#2727C9" stroke="#000000" stroke-width="4" d="M195.479,102.652c0,0,30.56,21.392,35.143,19.1
          c4.584-2.292,58.827-36.671,58.827-36.671L243.61,51.465l-50.423,38.2L195.479,102.652z"/>
            <path i:knockout="Off" fill="#2727C9" stroke="#000000" stroke-width="4" d="M22.818,152.312
          c0,0,125.293-76.398,200.928-106.958c75.635-30.56,30.56,29.031,30.56,29.031s-78.69,38.199-110.778,57.299
          s-81.746,50.424-87.858,51.188C49.558,183.635,22.818,152.312,22.818,152.312z"/>
            <path i:knockout="Off" fill="#2727C9" stroke="#000000" stroke-width="4" d="M255.967,27.303c0,0-5.29-1.851-14.146,8.46
          c-8.857,10.312,15.07,8.197,15.07,8.197L255.967,27.303z"/>
            <path i:knockout="Off" fill="#2727C9" stroke="#000000" stroke-width="4" d="M232.15,28.546c0,0,94.734,49.659,127.586,60.355
          c32.851,10.696,113.832,46.603,116.889,55.771s-27.503,30.559-27.503,30.559s-23.685-21.391-54.243-34.379
          c-30.56-12.987-83.274-34.379-112.306-48.131c-29.031-13.751-89.387-47.367-89.387-47.367L232.15,28.546z"/>
            <path i:knockout="Off" fill="#2727C9" stroke="#000000" stroke-width="4" d="M255.834,27.782c0,0-2.292,92.442-4.584,97.026
          c-2.293,4.584,42.783-12.987,43.546-18.335c0.765-5.349,6.877-50.423,2.293-55.007S260.417,25.49,255.834,27.782z"/>
            <path i:knockout="Off" fill="#FFFFFF" stroke="#000000" stroke-width="4" d="M52.833,134.34c0,0,20.641,24.654,33.446,31.918
          c4.013-1.912,87.34-50.839,87.34-50.839s-25.801-22.933-29.623-32.107C136.543,87.517,52.833,134.34,52.833,134.34z"/>
            <path i:knockout="Off" stroke="#000000" stroke-width="4" d="M62.006,129.18c0,0,20.641,24.655,33.446,31.917
          c4.013-1.911,68.995-40.707,68.995-40.707s-25.801-22.933-29.624-32.108C127.371,92.487,62.006,129.18,62.006,129.18z"/>
          </g>
        </g>
      </switch>
    </svg>

    <svg width="478.619" height="184.762" viewBox="0 0 478.619 184.762" overflow="visible" enable-background="new 0 0 478.619 184.762" xml:space="preserve" display="block" id="purple">
      <switch>
        <g i:extraneous="self">
          <g id="Layer_2" i:layer="yes" i:dimmedPercent="50" i:rgbTrio="#FFFF4F004F00">
            <path i:knockout="Off" fill="#621083" stroke="#BFBFBF" stroke-width="4" d="M192.044,46.054c0,0-1.475,4.952,0.21,7.375
          c1.686,2.423,24.86,1.791,24.86,1.791L205.845,45L192.044,46.054z"/>
            <path i:knockout="Off" fill="#621083" stroke="#BFBFBF" stroke-width="4" d="M9.831,23.198c0,0,119.181,32.087,233.779,32.087
          c114.598,0,214.679-51.187,218.5-53.479c3.819-2.292,12.987,38.963,0.765,48.131c-12.225,9.168-80.983,48.896-216.208,48.896
          c-135.226,0-233.015-21.392-239.892-29.032C-0.101,62.161-0.101,31.602,9.831,23.198z"/>
            <path i:knockout="Off" fill="#621083" stroke="#BFBFBF" stroke-width="4" d="M252.014,126.336c0,0-22.156-6.112-28.268-21.392
          c-6.111-15.279,58.827-29.795,58.827-29.795l-6.112,31.324L252.014,126.336z"/>
            <path i:knockout="Off" fill="#621083" stroke="#BFBFBF" stroke-width="4" d="M195.479,102.652c0,0,30.56,21.392,35.143,19.1
          c4.584-2.292,58.827-36.671,58.827-36.671L243.61,51.465l-50.423,38.2L195.479,102.652z"/>
            <path i:knockout="Off" fill="#621083" stroke="#BFBFBF" stroke-width="4" d="M22.818,152.312
          c0,0,125.293-76.398,200.928-106.958c75.635-30.56,30.56,29.031,30.56,29.031s-78.69,38.199-110.778,57.299
          s-81.746,50.424-87.858,51.188C49.558,183.635,22.818,152.312,22.818,152.312z"/>
            <path i:knockout="Off" fill="#621083" stroke="#BFBFBF" stroke-width="4" d="M255.967,27.303c0,0-5.29-1.851-14.146,8.46
          c-8.857,10.312,15.07,8.197,15.07,8.197L255.967,27.303z"/>
            <path i:knockout="Off" fill="#621083" stroke="#BFBFBF" stroke-width="4" d="M232.15,28.546c0,0,94.734,49.659,127.586,60.355
          c32.851,10.696,113.832,46.603,116.889,55.771s-27.503,30.559-27.503,30.559s-23.685-21.391-54.243-34.379
          c-30.56-12.987-83.274-34.379-112.306-48.131c-29.031-13.751-89.387-47.367-89.387-47.367L232.15,28.546z"/>
            <path i:knockout="Off" fill="#621083" stroke="#BFBFBF" stroke-width="4" d="M255.834,27.782c0,0-2.292,92.442-4.584,97.026
          c-2.293,4.584,42.783-12.987,43.546-18.335c0.765-5.349,6.877-50.423,2.293-55.007S260.417,25.49,255.834,27.782z"/>
            <path i:knockout="Off" fill="#FFFFFF" stroke="#BFBFBF" stroke-width="4" d="M52.833,134.34c0,0,20.641,24.654,33.446,31.918
          c4.013-1.912,87.34-50.839,87.34-50.839s-25.801-22.933-29.623-32.107C136.543,87.517,52.833,134.34,52.833,134.34z"/>
            <path i:knockout="Off" stroke="#BFBFBF" stroke-width="4" d="M62.006,129.18c0,0,20.641,24.655,33.446,31.917
          c4.013-1.911,68.995-40.707,68.995-40.707s-25.801-22.933-29.624-32.108C127.371,92.487,62.006,129.18,62.006,129.18z"/>
          </g>
        </g>
      </switch>
    </svg>

    <svg width="478.619" height="184.762" viewBox="0 0 478.619 184.762" overflow="visible" enable-background="new 0 0 478.619 184.762" xml:space="preserve" display="block" id="brown">
      <switch>
        <g i:extraneous="self">
          <g id="Layer_2" i:layer="yes" i:dimmedPercent="50" i:rgbTrio="#FFFF4F004F00">
            <path i:knockout="Off" fill="#8C462D" stroke="#404040" stroke-width="4" d="M192.044,46.054c0,0-1.475,4.952,0.21,7.375
          c1.686,2.423,24.86,1.791,24.86,1.791L205.845,45L192.044,46.054z"/>
            <path i:knockout="Off" fill="#8C462D" stroke="#333333" stroke-width="4" d="M9.831,23.198c0,0,119.181,32.087,233.779,32.087
          c114.598,0,214.679-51.187,218.5-53.479c3.819-2.292,12.987,38.963,0.765,48.131c-12.225,9.168-80.983,48.896-216.208,48.896
          c-135.226,0-233.015-21.392-239.892-29.032C-0.101,62.161-0.101,31.602,9.831,23.198z"/>
            <path i:knockout="Off" fill="#8C462D" stroke="#404040" stroke-width="4" d="M252.014,126.336c0,0-22.156-6.112-28.268-21.392
          c-6.111-15.279,58.827-29.795,58.827-29.795l-6.112,31.324L252.014,126.336z"/>
            <path i:knockout="Off" fill="#8C462D" stroke="#333333" stroke-width="4" d="M195.479,102.652c0,0,30.56,21.392,35.143,19.1
          c4.584-2.292,58.827-36.671,58.827-36.671L243.61,51.465l-50.423,38.2L195.479,102.652z"/>
            <path i:knockout="Off" fill="#8C462D" stroke="#333333" stroke-width="4" d="M22.818,152.312
          c0,0,125.293-76.398,200.928-106.958c75.635-30.56,30.56,29.031,30.56,29.031s-78.69,38.199-110.778,57.299
          s-81.746,50.424-87.858,51.188C49.558,183.635,22.818,152.312,22.818,152.312z"/>
            <path i:knockout="Off" fill="#8C462D" stroke="#404040" stroke-width="4" d="M255.967,27.303c0,0-5.29-1.851-14.146,8.46
          c-8.857,10.312,15.07,8.197,15.07,8.197L255.967,27.303z"/>
            <path i:knockout="Off" fill="#8C462D" stroke="#333333" stroke-width="4" d="M232.15,28.546c0,0,94.734,49.659,127.586,60.355
          c32.851,10.696,113.832,46.603,116.889,55.771s-27.503,30.559-27.503,30.559s-23.685-21.391-54.243-34.379
          c-30.56-12.987-83.274-34.379-112.306-48.131c-29.031-13.751-89.387-47.367-89.387-47.367L232.15,28.546z"/>
            <path i:knockout="Off" fill="#8C462D" stroke="#333333" stroke-width="4" d="M255.834,27.782c0,0-2.292,92.442-4.584,97.026
          c-2.293,4.584,42.783-12.987,43.546-18.335c0.765-5.349,6.877-50.423,2.293-55.007S260.417,25.49,255.834,27.782z"/>
            <path i:knockout="Off" fill="#FFFFFF" stroke="#404040" stroke-width="4" d="M52.833,134.34c0,0,20.641,24.654,33.446,31.918
          c4.013-1.912,87.34-50.839,87.34-50.839s-25.801-22.933-29.623-32.107C136.543,87.517,52.833,134.34,52.833,134.34z"/>
            <path i:knockout="Off" stroke="#404040" stroke-width="4" d="M62.006,129.18c0,0,20.641,24.655,33.446,31.917
          c4.013-1.911,68.995-40.707,68.995-40.707s-25.801-22.933-29.624-32.108C127.371,92.487,62.006,129.18,62.006,129.18z"/>
          </g>
        </g>
      </switch>
    </svg>

    <svg width="478.619" height="184.762" viewBox="0 0 478.619 184.762" overflow="visible" enable-background="new 0 0 478.619 184.762" xml:space="preserve" display="block" id="black">
      <switch>
        <g i:extraneous="self">
          <g id="Layer_2" i:layer="yes" i:dimmedPercent="50" i:rgbTrio="#FFFF4F004F00">
            <path i:knockout="Off" stroke="#BFBFBF" stroke-width="4" d="M192.044,46.054c0,0-1.475,4.952,0.21,7.375
          c1.686,2.423,24.86,1.791,24.86,1.791L205.845,45L192.044,46.054z"/>
            <path i:knockout="Off" stroke="#BFBFBF" stroke-width="4" d="M9.831,23.198c0,0,119.181,32.087,233.779,32.087
          c114.598,0,214.679-51.187,218.5-53.479c3.819-2.292,12.987,38.963,0.765,48.131c-12.225,9.168-80.983,48.896-216.208,48.896
          c-135.226,0-233.015-21.392-239.892-29.032C-0.101,62.161-0.101,31.602,9.831,23.198z"/>
            <path i:knockout="Off" stroke="#BFBFBF" stroke-width="4" d="M252.014,126.336c0,0-22.156-6.112-28.268-21.392
          c-6.111-15.279,58.827-29.795,58.827-29.795l-6.112,31.324L252.014,126.336z"/>
            <path i:knockout="Off" stroke="#BFBFBF" stroke-width="4" d="M195.479,102.652c0,0,30.56,21.392,35.143,19.1
          c4.584-2.292,58.827-36.671,58.827-36.671L243.61,51.465l-50.423,38.2L195.479,102.652z"/>
            <path i:knockout="Off" stroke="#BFBFBF" stroke-width="4" d="M22.818,152.312c0,0,125.293-76.398,200.928-106.958
          c75.635-30.56,30.56,29.031,30.56,29.031s-78.69,38.199-110.778,57.299s-81.746,50.424-87.858,51.188
          C49.558,183.635,22.818,152.312,22.818,152.312z"/>
            <path i:knockout="Off" stroke="#BFBFBF" stroke-width="4" d="M255.967,27.303c0,0-5.29-1.851-14.146,8.46
          c-8.857,10.312,15.07,8.197,15.07,8.197L255.967,27.303z"/>
            <path i:knockout="Off" stroke="#BFBFBF" stroke-width="4" d="M232.15,28.546c0,0,94.734,49.659,127.586,60.355
          c32.851,10.696,113.832,46.603,116.889,55.771s-27.503,30.559-27.503,30.559s-23.685-21.391-54.243-34.379
          c-30.56-12.987-83.274-34.379-112.306-48.131c-29.031-13.751-89.387-47.367-89.387-47.367L232.15,28.546z"/>
            <path i:knockout="Off" stroke="#BFBFBF" stroke-width="4" d="M255.834,27.782c0,0-2.292,92.442-4.584,97.026
          c-2.293,4.584,42.783-12.987,43.546-18.335c0.765-5.349,6.877-50.423,2.293-55.007S260.417,25.49,255.834,27.782z"/>
            <path i:knockout="Off" fill="#FFFFFF" stroke="#BFBFBF" stroke-width="4" d="M52.833,134.34c0,0,20.641,24.654,33.446,31.918
          c4.013-1.912,87.34-50.839,87.34-50.839s-25.801-22.933-29.623-32.107C136.543,87.517,52.833,134.34,52.833,134.34z"/>
            <path i:knockout="Off" fill="#FF0000" stroke="#BFBFBF" stroke-width="4" d="M62.006,129.18c0,0,20.641,24.655,33.446,31.917
          c4.013-1.911,68.995-40.707,68.995-40.707s-25.801-22.933-29.624-32.108C127.371,92.487,62.006,129.18,62.006,129.18z"/>
          </g>
        </g>
      </switch>
    </svg>
  </defs>
</svg>